<?xml version="1.0" standalone="no"?>
<!DOCTYPE svg PUBLIC "-//W3C//DTD SVG 20010904//EN"
 "http://www.w3.org/TR/2001/REC-SVG-20010904/DTD/svg10.dtd">
<svg version="1.0" xmlns="http://www.w3.org/2000/svg"
 width="512.000000pt" height="512.000000pt" viewBox="0 0 512.000000 512.000000"
 preserveAspectRatio="xMidYMid meet">
<metadata>
Created by potrace 1.11, written by Peter Selinger 2001-2013
</metadata>
<g transform="translate(0.000000,512.000000) scale(0.100000,-0.100000)"
fill="#000000" stroke="none">
<path d="M1010 2620 l0 -1530 1038 0 1039 0 121 -127 c66 -71 150 -158 185
-195 36 -37 77 -82 91 -99 l26 -31 0 226 0 226 235 0 236 0 -3 148 -3 147
-1325 0 -1325 0 -3 1233 -2 1232 1330 0 1330 0 0 150 0 150 -1485 0 -1485 0 0
-1530z"/>
<path d="M1690 2626 l0 -834 23 -6 c12 -3 376 -6 810 -6 l787 0 0 150 0 150
-655 0 -655 0 0 540 0 540 655 0 655 0 0 150 0 150 -810 0 -810 0 0 -834z"/>
<path d="M3610 2821 c0 -5 -16 -18 -35 -30 -19 -11 -39 -31 -45 -45 -5 -13
-14 -27 -19 -31 -17 -10 -14 -170 2 -184 8 -6 16 -8 20 -5 3 3 4 -2 3 -13 -3
-20 31 -56 46 -47 4 3 7 0 6 -8 -2 -7 3 -12 10 -10 6 1 12 -2 12 -8 0 -5 11
-10 25 -10 14 0 25 -4 25 -10 0 -5 18 -10 40 -10 22 0 40 5 40 10 0 6 11 10
25 10 14 0 25 5 25 10 0 5 6 9 13 7 6 -1 11 4 9 11 -1 8 2 11 7 8 5 -4 24 7
41 24 17 16 27 30 23 30 -4 0 -2 5 5 12 15 15 16 50 2 66 -7 9 -7 9 2 2 7 -5
16 -10 20 -10 12 0 10 68 -2 75 -5 3 -10 18 -10 32 0 20 -4 24 -17 18 -14 -5
-15 -4 -6 6 9 9 6 18 -15 40 -15 16 -32 29 -37 29 -6 0 -17 9 -25 20 -13 17
-26 20 -102 20 -48 0 -88 -4 -88 -9z"/>
</g>
</svg>
