<svg height='300px' width='300px'  fill="#FFFFFF" xmlns="http://www.w3.org/2000/svg" data-name="Layer 1" viewBox="0 0 100 100" x="0px" y="0px"><title>Artboard 5</title><g><path d="M23.7,77.54a6,6,0,0,0,6.54-1.3L36.49,70H70A10,10,0,0,0,80,60V32A10,10,0,0,0,70,22H30A10,10,0,0,0,20,32V72A6,6,0,0,0,23.7,77.54ZM26,64V32a4,4,0,0,1,4-4H70a4,4,0,0,1,4,4V60a4,4,0,0,1-4,4H34l-8,8Z"></path><rect x="34" y="51" width="6" height="6"></rect><rect x="47" y="51" width="6" height="6"></rect><rect x="60" y="51" width="6" height="6"></rect></g></svg>