<svg height='300px' width='300px'  fill="#FFFFFF" xmlns="http://www.w3.org/2000/svg" xmlns:xlink="http://www.w3.org/1999/xlink" version="1.1" preserveAspectRatio="none" x="0px" y="0px" viewBox="0 0 100 100"><defs><g id="a"><path fill="#FFFFFF" stroke="none" d=" M 81.8 81.8 Q 95 68.6 95 50 95 31.3 81.8 18.15 68.6 5 50 5 31.35 5 18.15 18.15 5 31.35 5 50 5 68.6 18.15 81.8 31.35 95 50 95 68.6 95 81.8 81.8 M 50 43.25 L 62.3 30.95 Q 63.65 29.55 65.65 29.55 67.6 29.55 69.05 30.95 70.4 32.35 70.4 34.3 70.4 36.3 69.05 37.7 L 56.75 50 69.05 62.3 Q 70.45 63.7 70.45 65.65 70.45 67.65 69.05 69.05 67.65 70.45 65.65 70.45 63.7 70.45 62.3 69.05 L 50 56.75 37.7 69.05 Q 36.3 70.45 34.3 70.45 32.35 70.45 30.95 69.05 29.55 67.65 29.55 65.65 29.55 63.7 30.95 62.3 L 43.25 50 30.95 37.75 Q 29.55 36.3 29.55 34.35 29.55 32.4 30.95 31 32.35 29.55 34.3 29.55 36.3 29.55 37.7 31 L 50 43.25 Z"></path></g></defs><g transform="matrix( 1, 0, 0, 1, 0,0) "><use xlink:href="#a"></use></g></svg>